<?xml version="1.0" standalone="no"?>
<!DOCTYPE svg PUBLIC "-//W3C//DTD SVG 20010904//EN"
 "http://www.w3.org/TR/2001/REC-SVG-20010904/DTD/svg10.dtd">
<svg version="1.0" xmlns="http://www.w3.org/2000/svg"
 width="374.000000pt" height="240.000000pt" viewBox="0 0 374.000000 240.000000"
 preserveAspectRatio="xMidYMid meet">

<g transform="translate(0.000000,240.000000) scale(0.100000,-0.100000)"
fill="#000000" stroke="none">
<path d="M0 2305 c0 -52 2 -95 5 -95 4 0 53 26 94 52 26 15 61 77 61 107 0 11
6 22 13 24 6 3 -30 6 -80 6 l-93 1 0 -95z"/>
<path d="M236 2383 c10 -10 33 -27 52 -39 l34 -21 -30 0 c-73 0 -122 -53 -122
-132 0 -27 30 -51 64 -51 7 0 24 -11 38 -25 14 -13 51 -34 82 -46 49 -19 62
-21 90 -11 18 7 40 12 50 12 10 0 31 8 46 17 26 15 38 15 112 4 46 -7 98 -19
117 -27 18 -8 42 -14 52 -14 10 0 33 -6 51 -14 59 -25 121 -38 222 -46 89 -7
104 -6 138 11 42 21 99 18 153 -9 25 -13 40 -13 113 -2 65 11 91 11 116 2 18
-7 44 -12 58 -12 53 0 86 -12 97 -36 14 -32 57 -42 94 -21 16 10 43 17 61 17
17 0 41 6 52 14 11 8 43 22 72 31 42 14 56 25 74 56 24 44 38 42 38 -5 0 -22
10 -46 30 -71 30 -38 33 -70 6 -87 -6 -4 -16 -11 -23 -15 -7 -5 -12 -40 -14
-86 -2 -62 1 -81 16 -97 10 -11 22 -17 26 -14 10 6 10 4 12 -95 1 -42 6 -66
15 -69 7 -2 18 -9 25 -16 7 -7 18 -11 25 -8 6 2 12 -3 12 -12 0 -16 14 -20 56
-17 11 1 27 -5 34 -13 11 -14 9 -16 -13 -16 -14 0 -29 -5 -32 -10 -4 -6 -10
-8 -15 -5 -12 7 -60 -35 -71 -62 -9 -25 -11 -25 -83 -18 -92 8 -165 -2 -174
-24 -9 -25 -18 -27 -80 -25 -91 3 -92 3 -92 19 0 11 -11 15 -39 15 -22 0 -42
-4 -45 -9 -3 -5 -35 -14 -70 -21 -39 -7 -67 -18 -70 -27 -9 -22 -111 -11 -140
15 -16 15 -39 21 -104 24 -46 3 -85 1 -88 -4 -9 -13 -61 -9 -74 6 -6 8 -27 20
-46 26 -22 7 -34 18 -34 29 0 10 -16 38 -35 63 -19 25 -31 48 -28 52 3 3 1 12
-5 19 -7 8 -9 17 -6 20 4 3 -7 9 -22 12 -16 4 -34 8 -41 10 -21 7 -73 -16 -84
-36 -5 -11 -20 -19 -34 -19 -14 0 -25 -4 -25 -10 0 -10 -21 -10 -30 1 -12 14
-89 26 -99 16 -15 -15 -22 -5 -28 41 -5 39 -6 39 -48 38 -23 -1 -49 -7 -58
-14 -13 -11 -24 -8 -71 18 -30 17 -66 43 -78 57 -13 14 -30 32 -38 42 -8 9
-15 23 -15 31 0 9 -7 14 -19 12 -10 -2 -16 1 -12 6 3 5 -18 32 -45 61 -36 38
-49 59 -46 73 4 14 1 18 -8 14 -17 -6 -29 9 -20 24 5 8 12 7 23 -1 15 -11 15
-11 0 6 -14 15 -20 16 -32 6 -12 -10 -22 -10 -50 0 -42 15 -55 43 -32 68 16
18 14 60 -3 71 -6 3 -23 31 -39 63 -16 31 -32 54 -35 50 -4 -3 -16 2 -27 12
l-20 18 0 -1086 0 -1087 1870 0 1870 0 0 985 0 985 -27 -11 c-15 -6 -33 -15
-40 -21 -9 -7 -36 -7 -91 2 -70 12 -84 11 -136 -5 -83 -26 -121 -65 -135 -140
-7 -33 -14 -69 -16 -81 -3 -11 -18 -38 -35 -59 -41 -52 -55 -107 -40 -161 9
-30 9 -55 2 -90 -6 -27 -8 -52 -6 -56 12 -19 -17 -5 -34 16 -18 24 -20 24 -62
10 -40 -14 -43 -14 -57 6 -8 11 -21 20 -29 20 -8 0 -14 4 -14 8 0 16 -75 42
-142 50 l-68 8 0 -27 c0 -16 -7 -29 -16 -33 -20 -8 -44 10 -44 33 0 12 -2 13
-8 4 -5 -8 -25 -12 -48 -10 -37 2 -39 1 -39 -28 0 -19 -6 -31 -16 -33 -23 -4
-110 38 -103 50 3 5 0 22 -6 39 -13 30 -17 30 -82 13 -9 -3 -36 1 -60 7 -24 7
-46 13 -49 13 -3 1 -13 9 -23 19 -10 9 -24 17 -31 17 -20 0 -32 70 -14 80 10
7 10 11 0 23 -7 9 -11 21 -10 29 5 36 -2 48 -26 48 -18 0 -28 7 -35 26 -14 37
-13 40 26 83 27 31 36 50 38 83 3 47 -15 93 -47 119 -13 10 -21 29 -21 50 -1
30 -4 34 -26 31 -14 -1 -20 1 -14 5 6 5 17 25 25 46 7 20 16 37 19 37 3 0 21
14 40 31 32 30 39 32 105 30 38 -1 89 -4 112 -7 33 -5 45 -2 61 14 16 16 32
20 83 18 50 -1 72 4 100 22 20 12 49 22 63 22 15 0 36 5 48 11 15 8 32 7 68
-5 27 -9 53 -16 59 -16 5 0 33 -16 63 -36 47 -31 59 -35 102 -31 37 3 53 0 66
-13 25 -25 116 -35 145 -16 25 17 35 12 35 -16 0 -41 29 -74 99 -111 39 -20
84 -37 99 -36 39 1 90 -15 145 -45 l47 -25 0 209 0 210 -1761 0 c-1677 0
-1760 -1 -1743 -17z m174 -854 c5 10 16 8 46 -5 49 -22 90 -24 133 -7 40 16
53 9 51 -25 -4 -63 -12 -60 135 -61 89 -1 135 3 135 10 0 5 5 7 10 4 6 -3 10
-1 10 5 0 7 7 9 15 6 9 -3 18 1 21 9 10 25 32 17 39 -15 4 -17 12 -36 18 -43
18 -19 47 -77 47 -92 0 -12 24 -28 45 -30 6 0 21 -8 34 -17 13 -9 29 -14 37
-11 19 7 29 -44 17 -90 -10 -36 -9 -39 13 -49 13 -6 24 -19 24 -29 0 -24 -49
-38 -64 -18 -6 8 -23 20 -38 28 -22 11 -30 11 -42 2 -11 -9 -20 -10 -36 -1
-17 9 -28 8 -53 -4 -54 -27 -67 -42 -67 -74 0 -25 6 -35 31 -47 24 -13 29 -20
23 -38 -9 -32 -25 -49 -40 -43 -7 3 -18 -2 -24 -10 -7 -8 -19 -14 -26 -14 -8
0 -14 -7 -14 -15 0 -20 -26 -30 -43 -18 -38 30 -107 -13 -107 -67 0 -50 -55
-67 -67 -21 -3 11 -11 17 -18 15 -7 -3 -36 9 -64 25 -66 39 -88 30 -89 -37 -2
-82 -5 -85 -80 -79 -38 3 -70 11 -76 19 -6 7 -36 26 -66 41 -30 16 -66 41 -80
56 -22 24 -111 61 -146 61 -8 0 -14 5 -14 10 0 6 4 10 10 10 14 0 40 55 40 84
0 16 11 36 29 52 25 22 28 29 21 61 -8 33 -65 100 -82 96 -3 -2 -2 14 4 33 5
19 7 48 3 63 -5 25 -2 30 25 39 17 6 44 9 59 6 38 -8 119 38 127 72 4 14 14
29 24 34 9 5 30 35 46 67 32 64 47 81 53 56 2 -11 5 -13 11 -4z m2074 -105
c23 -9 20 -34 -4 -34 -11 0 -20 5 -20 11 0 7 -10 9 -24 5 -14 -3 -27 -2 -31 3
-5 8 13 15 52 20 6 0 18 -2 27 -5z m440 -25 c26 -11 50 -27 53 -35 3 -7 9 -11
15 -8 5 3 18 -4 28 -16 17 -19 27 -22 68 -18 42 4 50 2 66 -19 14 -19 14 -24
4 -21 -8 2 -32 -15 -53 -37 -21 -22 -59 -51 -84 -65 -25 -14 -50 -35 -56 -47
-9 -21 -16 -23 -87 -23 -77 0 -78 0 -78 -25 0 -14 -5 -25 -11 -25 -7 0 -9 10
-5 25 6 25 6 25 -65 24 -62 -1 -72 -4 -77 -21 -4 -18 -5 -18 -18 0 -17 25
-132 30 -141 6 -3 -8 -15 -20 -27 -26 -11 -6 7 19 42 56 34 37 63 71 63 76 3
19 4 25 10 35 4 6 14 34 23 63 17 49 19 52 51 52 27 0 38 6 49 28 11 19 15 22
16 10 0 -10 7 -18 16 -18 11 0 14 -5 9 -17 -5 -15 -4 -16 6 -5 7 6 25 12 40
12 37 0 60 10 52 23 -6 9 22 37 38 37 3 0 28 -9 53 -21z m-408 -54 c8 -10 14
-11 21 -4 8 8 13 2 18 -21 6 -26 2 -35 -19 -55 -14 -13 -26 -29 -26 -36 0 -6
-7 -8 -16 -5 -11 4 -14 1 -9 -13 4 -13 -5 -28 -30 -50 -20 -17 -40 -31 -44
-31 -5 0 -14 -13 -19 -29 -6 -16 -19 -34 -30 -40 -49 -26 -75 -179 -37 -221 8
-9 15 -29 15 -44 0 -14 6 -28 13 -30 6 -2 31 -9 55 -17 l43 -13 -3 -53 c-2
-39 -7 -53 -18 -53 -13 0 -13 -1 0 -10 12 -7 8 -12 -20 -25 -19 -8 -42 -19
-50 -24 -43 -23 -61 -30 -115 -41 -73 -15 -121 -56 -111 -95 6 -22 3 -25 -23
-25 -20 0 -40 -11 -67 -40 -40 -41 -55 -40 -59 4 -3 27 -62 106 -79 106 -30 0
-105 46 -111 67 -14 56 -103 77 -199 48 -45 -14 -50 -14 -76 5 -16 11 -38 20
-49 20 -17 0 -21 6 -21 34 0 30 -3 33 -24 29 -13 -3 -27 0 -30 6 -6 10 -15 9
-54 -5 -9 -4 -27 -6 -39 -5 -11 1 -24 -3 -28 -8 -3 -6 -31 -11 -61 -11 -49 0
-57 3 -84 33 -23 27 -35 33 -58 29 -34 -5 -49 12 -31 34 10 12 9 13 -7 8 -10
-4 -16 -4 -12 1 4 4 2 17 -4 29 -7 11 -12 24 -11 27 1 3 -11 3 -28 1 -16 -2
-29 -1 -29 3 0 11 41 45 55 45 26 0 35 27 28 81 -7 45 -12 55 -31 57 -29 4
-27 13 6 37 33 24 122 27 149 4 18 -15 80 -18 100 -6 19 12 21 57 3 80 -25 32
-7 108 29 125 30 14 78 16 86 2 3 -5 12 -7 19 -4 8 3 21 -4 29 -16 9 -13 29
-23 49 -26 117 -13 127 -13 150 5 24 19 63 35 88 36 8 0 20 3 25 6 21 12 46
18 41 10 -9 -14 68 -31 140 -31 52 0 72 4 88 19 12 10 41 23 66 28 43 10 58
10 142 -3 38 -6 43 -3 98 66 l25 31 85 -6 c54 -4 89 -12 96 -20z m-10 -280
c-5 -21 -3 -25 14 -25 17 0 19 4 14 25 -5 21 -3 24 11 19 12 -5 16 -15 13 -35
-4 -25 -1 -29 19 -29 13 0 22 4 19 8 -2 4 4 13 14 20 11 6 21 8 24 3 6 -9 94
-14 223 -12 73 0 84 -2 93 -19 6 -11 21 -20 34 -20 13 0 37 -7 52 -15 17 -9
53 -14 88 -14 79 2 94 -15 64 -73 -18 -34 -19 -43 -8 -63 7 -13 16 -24 19 -23
25 3 43 -7 79 -43 52 -50 56 -74 11 -64 -17 4 -64 8 -104 10 -70 2 -75 4 -102
35 -15 18 -45 41 -68 50 -50 22 -175 36 -175 21 0 -8 -6 -7 -19 1 -16 10 -23
9 -39 -5 -17 -15 -20 -16 -25 -3 -8 21 -44 9 -52 -17 l-6 -22 -9 23 c-12 29
-28 28 -40 -4 -12 -31 -12 -34 -1 -34 5 0 12 10 16 23 l8 22 4 -22 c4 -18 10
-22 40 -19 32 2 34 1 17 -11 -10 -7 -26 -13 -36 -13 -10 0 -23 -9 -30 -20 -16
-25 -23 -25 -58 0 -18 13 -31 16 -35 10 -3 -5 -16 -10 -29 -10 -12 0 -27 -5
-33 -11 -12 -12 -16 -2 -25 55 -2 13 -22 24 -68 40 l-65 21 -3 68 c-3 68 -2
69 35 108 21 21 43 39 50 39 7 0 25 11 40 25 35 31 37 31 29 0z m104 10 c0 -8
-4 -15 -10 -15 -5 0 -10 7 -10 15 0 8 5 15 10 15 6 0 10 -7 10 -15z m97 -7
c-3 -8 -6 -5 -6 6 -1 11 2 17 5 13 3 -3 4 -12 1 -19z m120 0 c-3 -8 -6 -5 -6
6 -1 11 2 17 5 13 3 -3 4 -12 1 -19z m45 7 c0 -5 -5 -11 -11 -13 -6 -2 -11 4
-11 13 0 9 5 15 11 13 6 -2 11 -8 11 -13z m-132 -279 c0 -8 -4 -17 -9 -21 -6
-3 -9 4 -8 15 1 23 17 28 17 6z m-1794 -10 c15 2 25 -5 37 -31 9 -19 22 -35
28 -35 8 0 6 -7 -4 -18 -10 -10 -17 -22 -17 -26 0 -16 -72 -116 -84 -116 -6 0
-17 -9 -24 -20 -7 -12 -17 -18 -22 -15 -6 3 -10 0 -10 -8 0 -8 -7 -17 -14 -20
-8 -3 -18 -22 -21 -41 -6 -31 -10 -34 -45 -38 -22 -2 -50 0 -64 3 -20 6 -26 4
-27 -9 0 -14 -2 -14 -6 -2 -10 25 -27 30 -49 15 -22 -14 -44 -4 -44 20 0 5 5
3 11 -5 9 -13 10 -12 5 3 -3 10 -2 15 3 12 5 -3 13 0 17 6 5 8 3 9 -6 4 -9 -6
-11 -4 -5 5 6 9 4 11 -5 5 -9 -6 -11 -4 -6 6 4 8 -6 -1 -23 -19 -17 -18 -31
-38 -31 -45 1 -6 7 -1 15 13 18 32 19 23 0 -29 -12 -36 -12 -41 0 -41 8 0 16
8 16 18 1 16 2 16 6 0 2 -10 9 -19 14 -19 36 -5 55 -3 61 6 5 6 8 5 8 -3 0 -7
4 -11 9 -7 5 3 13 0 17 -6 4 -8 3 -9 -4 -5 -7 4 -10 2 -9 -6 2 -7 2 -9 -1 -4
-2 4 -8 2 -13 -5 -7 -12 -9 -11 -9 1 0 13 -1 13 -10 0 -9 -13 -10 -13 -10 0 0
13 -2 13 -11 0 -10 -13 -10 -13 -6 1 3 9 -1 16 -8 16 -11 0 -12 -5 -3 -21 6
-12 11 -23 10 -26 -3 -8 67 -7 80 2 10 6 10 8 0 8 -9 0 -10 5 -3 18 7 14 6 25
-6 43 l-17 24 22 -19 c18 -16 25 -17 35 -7 9 10 9 12 -2 9 -8 -2 -16 4 -18 13
-3 12 4 15 32 15 32 -1 36 -4 32 -24 -3 -14 0 -21 7 -19 6 2 12 9 12 15 4 38
8 29 14 -33 4 -38 10 -77 14 -85 5 -13 -1 -15 -35 -12 -22 3 -46 -1 -52 -7
-17 -17 -122 -14 -137 4 -7 8 -29 15 -50 15 -29 0 -39 -5 -50 -25 -7 -14 -19
-25 -25 -25 -29 0 -75 13 -75 22 0 5 -10 22 -21 38 -20 26 -20 32 -9 59 11 28
21 36 43 32 4 0 7 4 7 9 0 6 8 5 20 -2 15 -10 22 -10 31 -1 9 9 18 9 31 2 21
-11 48 3 48 26 0 18 -27 38 -34 26 -3 -5 -1 -11 5 -13 6 -2 9 -13 7 -23 -4
-17 -6 -16 -16 8 -14 33 -8 47 19 47 10 0 19 4 19 9 0 5 -12 6 -27 2 -21 -5
-29 -15 -33 -37 -5 -26 -6 -27 -12 -8 -3 14 -17 24 -37 29 -17 4 -31 12 -32
18 0 7 -2 20 -4 30 -5 24 0 21 24 -15 11 -18 21 -28 21 -21 0 6 -4 15 -10 18
-18 11 -10 34 13 37 17 2 22 9 22 34 0 24 -4 30 -16 27 -11 -3 -15 -12 -12
-24 3 -11 0 -19 -7 -19 -9 0 -11 12 -7 40 l5 40 -35 0 c-19 0 -32 4 -29 9 4 5
0 12 -6 14 -14 6 10 8 104 11 32 1 61 5 65 9 13 14 17 50 9 85 -4 20 -2 23 12
17 9 -4 27 -10 38 -12 34 -8 99 -68 84 -78 -8 -5 -11 -4 -7 2 4 6 -1 10 -11 9
-9 0 -16 5 -14 12 1 8 -2 11 -9 6 -7 -4 -9 -3 -5 4 3 6 2 13 -3 17 -6 3 -8 -3
-6 -15 4 -21 -19 -29 -30 -10 -3 6 0 10 7 10 10 0 10 2 -1 9 -12 8 -12 10 0
14 8 2 6 3 -3 2 -10 -2 -18 2 -18 8 0 6 -3 7 -7 3 -4 -3 -7 -26 -8 -49 0 -23
-5 -49 -9 -57 -5 -8 -5 -12 -1 -7 12 10 45 -22 38 -39 -3 -10 -18 -12 -53 -10
l-48 4 1 -32 c0 -19 6 -33 14 -33 8 0 11 8 7 24 -4 15 -2 23 6 23 8 0 11 -12
8 -35 -3 -28 -1 -35 14 -35 11 0 15 5 12 15 -7 17 11 21 21 5 3 -5 12 -10 18
-10 7 0 6 4 -3 10 -9 6 -10 10 -3 10 6 0 14 -4 17 -9 3 -5 23 -7 43 -4 21 2
44 5 51 5 7 1 11 7 8 15 -3 7 1 13 9 13 8 0 14 -5 12 -11 -1 -6 4 -14 11 -16
8 -3 12 6 12 25 0 18 -6 32 -16 36 -12 4 -15 2 -10 -9 3 -9 0 -15 -9 -15 -9 0
-12 6 -9 15 5 12 -2 15 -32 15 -61 0 -71 2 -71 17 0 7 4 13 9 13 4 0 8 -5 8
-12 0 -17 10 -3 15 21 7 36 14 40 58 36 30 -3 38 -2 27 5 -11 8 -8 9 15 7 33
-5 75 25 75 52 0 14 1 14 10 1 6 -9 10 -10 10 -3 0 6 -5 15 -10 18 -6 4 -8 10
-5 15 3 5 1 11 -4 15 -6 3 -8 -3 -6 -14 2 -14 -1 -18 -11 -14 -9 3 -14 -2 -14
-15 0 -23 -23 -45 -35 -34 -5 4 -6 3 -3 -3 4 -5 -5 -10 -18 -10 -13 0 -24 3
-24 8 0 4 9 7 20 7 11 0 23 7 27 16 5 13 7 13 14 2 6 -9 9 -7 9 9 0 12 7 26
16 31 9 5 16 12 15 15 -2 27 13 37 54 32 26 -3 46 -1 50 5 4 7 11 8 18 2 7 -5
21 -8 33 -6z m-177 -110 c-22 -20 -22 -20 -6 0 9 11 17 27 18 35 0 11 2 11 6
0 3 -7 -5 -23 -18 -35z m-194 14 c-7 -12 23 -33 39 -27 22 9 26 -3 10 -27 -8
-13 -12 -25 -9 -28 3 -2 -4 -4 -15 -3 -11 1 -23 5 -27 9 -10 10 -11 96 -1 90
5 -3 6 -9 3 -14z m534 -45 c24 -26 45 -30 145 -26 27 1 55 6 62 12 7 6 18 8
23 5 5 -4 12 -2 16 4 3 5 17 10 31 10 19 0 24 -5 24 -24 0 -22 13 -40 30 -41
3 0 19 -7 37 -15 28 -13 31 -18 26 -47 -5 -28 -3 -33 15 -33 11 0 23 4 26 9 4
5 -3 7 -14 4 -13 -4 -20 0 -20 10 0 8 11 17 25 19 21 4 25 1 25 -18 0 -15 6
-24 16 -24 9 0 13 5 9 13 -4 6 1 3 9 -7 9 -11 19 -17 23 -13 3 4 -1 15 -11 26
-15 17 -15 19 -1 25 28 11 36 7 33 -16 -2 -18 3 -23 29 -29 31 -6 32 -5 26 20
-8 37 -12 41 -36 42 l-22 0 23 9 c12 5 36 7 52 3 24 -4 28 -8 19 -19 -9 -11
-7 -14 9 -14 14 0 22 -8 24 -22 3 -23 50 -56 82 -57 10 -1 36 -19 58 -40 30
-31 37 -45 33 -63 -4 -17 1 -30 19 -47 34 -32 82 -23 123 24 35 39 45 42 63
20 7 -8 27 -15 45 -15 18 0 39 -7 46 -16 11 -14 9 -19 -11 -34 -14 -11 -26
-25 -26 -32 -1 -7 -2 -21 -3 -30 0 -10 -8 -18 -16 -18 -8 0 -15 -3 -15 -7 0
-5 -23 -8 -50 -7 -28 0 -53 -3 -55 -7 -3 -4 -17 -4 -33 0 -35 10 -100 -2 -115
-22 -13 -17 -75 -28 -83 -15 -9 15 -54 9 -54 -7 0 -8 -6 -15 -12 -15 -21 0
-115 49 -95 50 9 0 17 7 17 16 0 8 -5 12 -10 9 -6 -3 -13 1 -17 11 -6 16 -7
16 -19 -1 -13 -18 -14 -18 -34 0 -11 10 -39 19 -67 21 -79 6 -98 8 -103 14 -3
3 -17 11 -32 17 -16 7 -25 18 -23 25 3 8 -1 22 -9 33 -10 14 -11 25 -3 42 12
26 -7 57 -30 49 -8 -3 -11 -1 -8 4 3 6 15 10 26 10 10 0 19 5 19 10 0 14 -33
13 -48 -2 -7 -7 -12 -21 -12 -32 -1 -19 -1 -19 -11 -3 -14 23 -35 22 -53 -4
-13 -19 -21 -21 -61 -16 -25 4 -44 3 -41 -1 3 -5 -25 -8 -61 -6 -76 3 -119
-13 -133 -52 -9 -23 -45 -44 -74 -44 -16 0 -50 81 -37 89 4 3 10 25 14 48 5
43 43 87 89 105 10 4 18 14 18 21 0 8 9 22 19 31 11 10 25 32 32 49 25 60 60
72 98 32z m-541 -107 c-6 -18 -28 -21 -28 -4 0 9 7 16 16 16 9 0 14 -5 12 -12z
m27 3 c3 -5 2 -12 -3 -15 -5 -3 -9 1 -9 9 0 17 3 19 12 6z m85 -6 c0 -8 -4
-15 -10 -15 -5 0 -10 7 -10 15 0 8 5 15 10 15 6 0 10 -7 10 -15z m-280 -4 c0
-6 -4 -12 -8 -15 -5 -3 -9 1 -9 9 0 8 4 15 9 15 4 0 8 -4 8 -9z m1270 -21 c0
-5 -5 -10 -11 -10 -5 0 -7 5 -4 10 3 6 8 10 11 10 2 0 4 -4 4 -10z m-1224
-127 c-10 -10 -19 5 -10 18 6 11 8 11 12 0 2 -7 1 -15 -2 -18z m839 -3 c-3 -5
-10 -10 -16 -10 -5 0 -9 5 -9 10 0 6 7 10 16 10 8 0 12 -4 9 -10z m65 -5 c0
-8 -4 -15 -10 -15 -5 0 -10 7 -10 15 0 8 5 15 10 15 6 0 10 -7 10 -15z m-676
-66 c3 -2 -10 -5 -29 -5 -18 0 -32 3 -30 7 5 7 52 6 59 -2z"/>
<path d="M215 1155 l0 -45 55 0 55 0 0 45 c0 34 -4 45 -15 45 -12 0 -15 -9
-12 -40 3 -33 1 -40 -13 -40 -15 0 -17 7 -12 40 3 27 1 40 -7 40 -7 0 -10 -14
-8 -40 3 -33 1 -40 -13 -40 -14 0 -16 7 -13 40 2 24 -1 40 -7 40 -6 0 -10 -20
-10 -45z"/>
<path d="M344 1155 c-9 -23 3 -45 26 -45 25 0 37 25 20 45 -16 19 -39 19 -46
0z m36 -21 c0 -16 -16 -19 -25 -4 -8 13 4 32 16 25 5 -4 9 -13 9 -21z"/>
<path d="M408 1140 c-4 -23 -1 -30 12 -30 13 0 16 6 12 26 -4 20 -1 25 9 22 8
-3 14 -15 13 -27 0 -11 4 -21 10 -21 6 0 11 14 11 30 0 27 -3 30 -31 30 -28 0
-32 -4 -36 -30z"/>
<path d="M494 1155 c-11 -29 3 -43 45 -43 29 -1 39 3 35 11 -5 8 -3 8 7 0 7
-7 34 -13 60 -13 47 0 47 0 40 28 -10 36 -38 40 -52 8 -7 -14 -16 -26 -20 -26
-15 0 -21 21 -9 35 11 13 7 15 -19 15 -26 0 -31 -4 -31 -23 0 -17 -6 -23 -26
-25 -19 -1 -25 2 -22 16 2 10 11 16 22 14 11 -2 15 1 11 7 -9 16 -35 13 -41
-4z m161 -5 c-3 -5 -1 -10 5 -10 6 0 8 -4 5 -10 -10 -16 -23 -11 -20 8 5 23 4
22 11 22 3 0 2 -4 -1 -10z"/>
<path d="M291 1046 c-7 -8 -11 -27 -9 -43 3 -24 7 -28 38 -29 21 -1 40 4 48
14 11 14 12 14 12 -1 0 -9 8 -17 18 -18 9 0 29 -2 45 -3 22 -1 27 3 27 20 0
47 -60 58 -60 12 -1 -22 -1 -22 -16 5 -18 34 -22 34 -35 0 l-10 -27 -12 24
c-7 13 -19 25 -27 28 -12 4 -13 2 -2 -9 17 -18 15 -39 -3 -39 -25 0 -14 51 12
61 28 10 30 19 4 19 -10 0 -24 -6 -30 -14z m159 -56 c0 -5 -7 -10 -16 -10 -8
0 -12 5 -9 10 3 6 10 10 16 10 5 0 9 -4 9 -10z"/>
<path d="M220 1015 c-17 -20 -5 -45 20 -45 11 0 23 7 26 15 6 15 -11 45 -26
45 -4 0 -13 -7 -20 -15z m30 -21 c0 -8 -4 -14 -10 -14 -5 0 -10 9 -10 21 0 11
5 17 10 14 6 -3 10 -13 10 -21z"/>
<path d="M490 1015 c-7 -8 -10 -22 -6 -30 6 -16 46 -21 46 -5 0 5 -7 7 -15 4
-9 -4 -15 0 -15 9 0 11 10 15 36 14 31 -1 35 -3 29 -24 -4 -17 -2 -21 9 -17 8
3 12 13 8 26 -4 17 -2 20 12 15 12 -5 16 -3 14 5 -6 17 -46 22 -63 8 -9 -7
-15 -8 -20 0 -9 14 -20 13 -35 -5z"/>
<path d="M478 773 c6 -2 9 -10 6 -15 -4 -7 -2 -8 5 -4 13 9 5 26 -12 25 -9 0
-8 -2 1 -6z"/>
<path d="M2668 1283 c7 -3 16 -2 19 1 4 3 -2 6 -13 5 -11 0 -14 -3 -6 -6z"/>
<path d="M1450 1045 c0 -9 6 -12 15 -9 10 4 14 1 11 -7 -18 -59 -17 -69 10
-69 21 0 25 3 19 18 -12 28 -11 57 3 55 6 -2 12 4 12 12 0 10 -11 15 -35 15
-24 0 -35 -5 -35 -15z"/>
<path d="M1840 1050 c0 -5 5 -10 10 -10 6 0 10 5 10 10 0 6 -4 10 -10 10 -5 0
-10 -4 -10 -10z"/>
<path d="M1859 1040 c-10 -10 -27 -16 -42 -15 -22 3 -25 0 -24 -29 1 -30 4
-33 31 -32 28 1 31 4 28 28 -2 19 4 31 18 40 11 7 20 16 20 20 0 13 -14 8 -31
-12z m-26 -57 c-4 -10 -9 -11 -16 -4 -5 5 -7 18 -3 28 6 14 9 15 16 4 4 -8 6
-21 3 -28z"/>
<path d="M1569 1016 c7 -8 10 -20 6 -26 -10 -17 -25 -11 -25 10 0 11 -6 20
-12 20 -8 0 -13 -15 -13 -40 0 -31 4 -40 17 -40 12 0 15 5 11 17 -5 11 -3 14
6 8 8 -4 17 -2 22 6 14 22 10 46 -7 53 -14 5 -15 4 -5 -8z"/>
<path d="M1610 1004 c-6 -15 -8 -29 -5 -32 9 -10 89 -2 96 10 4 7 9 7 13 -1
11 -17 63 -13 70 5 4 10 2 13 -6 8 -7 -5 -9 -1 -6 13 3 12 0 20 -8 20 -9 0
-12 -9 -10 -24 5 -27 -15 -31 -34 -8 -9 10 -9 15 -1 15 6 0 11 4 11 9 0 5 -13
8 -28 8 -24 -1 -28 -5 -24 -24 2 -13 0 -23 -6 -23 -6 0 -12 10 -14 22 -5 34
-36 35 -48 2z m27 -4 c1 -11 -2 -20 -5 -20 -4 0 -8 9 -9 20 -1 11 2 20 5 20 4
0 8 -9 9 -20z"/>
<path d="M1869 1009 c-8 -17 -8 -20 1 -14 9 5 10 2 6 -12 -4 -13 -2 -20 7 -20
8 0 13 13 13 34 0 38 -10 43 -27 12z"/>
<path d="M1923 1023 c-7 -2 -13 -13 -13 -23 0 -31 22 -38 117 -38 l93 0 -6 27
c-9 37 -13 41 -34 41 -11 0 -25 -12 -33 -26 -12 -23 -15 -24 -26 -10 -11 14
-11 16 3 16 10 0 14 5 11 10 -9 15 -66 13 -64 -2 3 -27 -2 -34 -26 -36 -15 -1
-25 3 -25 11 0 22 12 28 28 14 12 -10 14 -9 11 2 -6 17 -18 22 -36 14z"/>
<path d="M1674 903 c-9 -9 -28 -17 -43 -18 -22 0 -26 -4 -26 -30 0 -24 5 -31
23 -33 17 -3 25 2 29 19 l6 23 8 -22 c10 -26 31 -28 50 -6 16 19 0 50 -25 48
-9 -1 -13 2 -10 7 3 5 14 9 25 9 10 0 19 5 19 10 0 16 -37 11 -56 -7z m-34
-48 c0 -8 -4 -15 -10 -15 -5 0 -10 7 -10 15 0 8 5 15 10 15 6 0 10 -7 10 -15z
m70 0 c0 -8 -4 -15 -10 -15 -5 0 -10 7 -10 15 0 8 5 15 10 15 6 0 10 -7 10
-15z"/>
<path d="M1747 873 c-2 -10 -8 -26 -12 -35 -5 -13 -2 -18 8 -18 9 0 18 8 20
18 4 15 5 15 6 0 1 -14 12 -16 71 -15 49 0 74 5 83 15 10 13 8 14 -11 8 -16
-6 -22 -3 -22 8 0 18 8 20 30 6 9 -6 17 -5 23 3 5 7 6 1 3 -15 -6 -25 -3 -28
19 -28 22 0 25 3 19 28 -4 20 -3 23 5 12 13 -18 24 -8 15 14 -5 13 -18 16 -53
15 -66 -2 -81 -8 -82 -32 -1 -20 -2 -20 -8 3 -9 34 -48 40 -60 8 l-8 -23 -7
23 c-9 26 -32 29 -39 5z"/>
<path d="M2614 940 c1 -34 -11 -32 163 -35 l123 -3 -6 26 c-9 38 -13 42 -34
42 -11 0 -20 -10 -24 -25 -4 -14 -11 -25 -16 -25 -14 0 -25 23 -12 28 7 2 12
8 12 13 0 5 -26 8 -57 7 -49 -3 -59 -6 -71 -28 l-14 -25 6 28 c6 26 5 27 -32
27 -37 0 -39 -2 -38 -30z m146 -5 c0 -6 -11 -12 -25 -13 -16 -1 -23 3 -19 11
6 15 44 17 44 2z"/>
<path d="M2603 853 c-28 -5 -39 -43 -23 -73 15 -29 45 -22 45 10 0 20 -5 25
-23 24 -28 -1 -23 20 6 24 12 2 22 8 22 13 0 5 -1 8 -2 8 -2 -1 -13 -4 -25 -6z
m17 -47 c0 -15 -14 -35 -21 -30 -15 9 -10 34 6 34 8 0 15 -2 15 -4z"/>
<path d="M2506 804 c-9 -22 17 -49 39 -40 10 3 15 15 13 28 -4 29 -42 37 -52
12z m42 -11 c-4 -22 -22 -20 -26 1 -2 10 3 16 13 16 10 0 15 -7 13 -17z"/>
<path d="M825 661 c-3 -5 -2 -12 3 -15 5 -3 9 1 9 9 0 17 -3 19 -12 6z"/>
<path d="M760 555 c-7 -8 -10 -22 -6 -30 6 -16 46 -21 46 -5 0 5 -7 7 -15 4
-9 -4 -15 0 -15 10 0 9 7 16 16 16 8 0 12 5 9 10 -9 14 -21 12 -35 -5z"/>
<path d="M820 546 c0 -8 -3 -22 -6 -30 -5 -12 -2 -15 10 -10 9 4 15 9 12 12
-3 3 4 13 16 23 l21 19 -26 0 c-17 0 -27 -6 -27 -14z"/>
<path d="M619 477 c6 -6 4 -19 -6 -36 -9 -16 -10 -20 -2 -11 8 9 23 15 34 15
13 0 20 7 20 19 0 15 -7 20 -28 21 -18 1 -25 -1 -18 -8z m38 -12 c0 -6 -6 -12
-12 -12 -6 0 -12 6 -12 12 0 6 6 12 12 12 6 0 12 -6 12 -12z"/>
<path d="M574 645 c1 -14 5 -25 9 -25 4 0 13 0 20 0 8 0 7 4 -3 10 -13 8 -13
10 2 10 9 0 20 4 23 10 3 6 -1 7 -10 4 -8 -4 -21 -1 -29 5 -10 9 -13 6 -12
-14z"/>
<path d="M1138 535 c3 -30 9 -45 18 -45 7 0 11 6 8 14 -3 8 3 16 16 19 35 9
23 51 -15 55 -30 3 -30 3 -27 -43z m47 17 c0 -18 -20 -15 -23 4 -3 10 1 15 10
12 7 -3 13 -10 13 -16z"/>
<path d="M1217 543 c-4 -3 -7 -17 -7 -30 0 -18 5 -23 25 -23 14 0 28 7 31 15
11 27 -30 58 -49 38z m33 -29 c0 -8 -7 -14 -15 -14 -15 0 -21 21 -9 33 10 9
24 -2 24 -19z"/>
<path d="M1290 526 c0 -14 -4 -28 -10 -31 -5 -3 -10 -10 -10 -16 0 -5 9 -4 20
3 16 10 24 10 40 0 11 -7 20 -8 20 -3 0 6 -5 13 -11 17 -6 3 -8 17 -5 30 6 21
3 24 -19 24 -20 0 -25 -5 -25 -24z m30 -11 c0 -8 -4 -15 -10 -15 -5 0 -7 7 -4
15 4 8 8 15 10 15 2 0 4 -7 4 -15z"/>
<path d="M1362 541 c-21 -13 -10 -46 16 -49 27 -4 40 22 22 43 -14 17 -20 18
-38 6z m28 -27 c0 -16 -16 -19 -25 -4 -8 13 4 32 16 25 5 -4 9 -13 9 -21z"/>
<path d="M1415 520 c0 -21 5 -30 16 -30 12 0 15 7 11 26 -4 20 -1 25 9 22 8
-3 14 -15 13 -27 0 -11 4 -21 10 -21 6 0 11 14 11 30 0 28 -3 30 -35 30 -32 0
-35 -2 -35 -30z"/>
<path d="M1715 480 c-3 -5 -1 -10 4 -10 6 0 11 5 11 10 0 6 -2 10 -4 10 -3 0
-8 -4 -11 -10z"/>
<path d="M1390 380 c-7 -17 -10 -34 -6 -37 4 -4 9 3 13 15 6 26 20 29 25 5 2
-14 13 -18 45 -18 40 0 42 1 36 25 -8 35 -12 40 -29 40 -8 0 -19 -12 -25 -27
-11 -27 -11 -27 -19 -7 -14 35 -27 36 -40 4z m87 0 c1 -11 -2 -22 -8 -25 -7
-5 -7 18 0 43 3 8 7 -1 8 -18z"/>
<path d="M1522 398 c-16 -16 -15 -33 3 -48 12 -10 19 -10 27 -2 9 9 8 12 -6
12 -14 0 -17 5 -12 25 7 28 5 30 -12 13z"/>
<path d="M1566 401 c-12 -5 -16 -10 -9 -14 6 -4 19 -4 28 -1 13 5 16 2 13 -16
-2 -16 2 -24 14 -26 14 -2 17 3 12 22 -5 21 -3 23 12 17 17 -6 17 -5 5 10 -14
18 -43 21 -75 8z"/>
<path d="M1682 280 c0 -14 2 -19 5 -12 2 6 2 18 0 25 -3 6 -5 1 -5 -13z"/>
<path d="M2322 1981 c0 -17 -5 -39 -11 -50 -16 -29 -14 -30 24 -24 21 3 41 1
50 -7 12 -10 15 -10 15 3 0 9 -4 19 -10 22 -13 8 -13 65 1 65 5 0 7 5 4 10 -3
6 -21 10 -39 10 -30 0 -33 -3 -34 -29z m38 -21 c0 -19 -5 -30 -14 -30 -12 0
-12 5 -3 30 6 17 13 30 14 30 2 0 3 -13 3 -30z"/>
<path d="M2471 1992 c-6 -11 -7 -32 -2 -48 10 -38 47 -45 61 -12 9 19 10 17 6
-15 -4 -32 -2 -38 10 -33 9 3 18 6 20 6 3 0 2 5 -1 10 -3 6 0 10 8 10 29 0 39
26 20 49 -16 19 -22 21 -45 12 -27 -10 -49 1 -28 14 18 11 10 25 -15 25 -13 0
-29 -8 -34 -18z m39 -47 c0 -8 -4 -15 -10 -15 -5 0 -10 7 -10 15 0 8 5 15 10
15 6 0 10 -7 10 -15z m70 0 c0 -8 -4 -15 -10 -15 -5 0 -10 7 -10 15 0 8 5 15
10 15 6 0 10 -7 10 -15z"/>
<path d="M2410 1965 c-19 -23 -8 -50 20 -50 16 0 26 6 28 18 4 18 -14 47 -28
47 -4 0 -13 -7 -20 -15z m30 -20 c0 -8 -4 -15 -10 -15 -5 0 -10 7 -10 15 0 8
5 15 10 15 6 0 10 -7 10 -15z"/>
<path d="M2600 1972 c0 -5 7 -17 15 -28 19 -25 19 -45 0 -38 -8 4 -15 1 -15
-5 0 -25 32 -9 53 27 24 40 24 45 8 50 -6 2 -11 -6 -11 -18 0 -12 -4 -19 -10
-15 -5 3 -7 12 -3 20 3 10 -2 15 -16 15 -12 0 -21 -4 -21 -8z"/>
<path d="M2690 1957 c0 -9 -5 -26 -12 -37 -7 -10 -8 -23 -4 -27 5 -4 11 -2 13
5 3 6 15 12 28 12 13 0 26 -6 28 -12 4 -10 7 -10 15 0 6 9 42 13 128 13 l119
0 1 34 0 33 -158 -1 c-144 -2 -158 -4 -158 -20z m27 -19 c-3 -8 -6 -5 -6 6 -1
11 2 17 5 13 3 -3 4 -12 1 -19z m47 13 c3 -5 -1 -14 -9 -21 -13 -10 -15 -9
-15 9 0 21 14 28 24 12z m96 1 c0 -13 -12 -22 -22 -16 -10 6 -1 24 13 24 5 0
9 -4 9 -8z m67 -14 c-3 -8 -6 -5 -6 6 -1 11 2 17 5 13 3 -3 4 -12 1 -19z m50
16 c-3 -3 -12 -4 -19 -1 -8 3 -5 6 6 6 11 1 17 -2 13 -5z"/>
<path d="M3019 1963 c-6 -6 -9 -20 -7 -30 3 -16 16 -18 104 -19 l101 -2 -5 27
c-9 46 -47 56 -62 16 -10 -26 -24 -32 -35 -15 -3 6 1 13 9 16 9 3 16 10 16 15
0 14 -110 7 -121 -8z m54 -18 c-5 -16 -43 -16 -43 0 0 7 10 12 24 11 13 0 22
-6 19 -11z"/>
<path d="M2663 1862 c-12 -2 -24 -11 -27 -20 -4 -12 -16 -17 -38 -17 -26 0
-34 -4 -36 -22 -4 -28 34 -42 56 -19 14 14 17 14 27 -1 16 -21 45 -10 45 17 0
12 -9 24 -22 30 -17 6 -18 9 -6 9 9 1 20 6 23 12 9 13 5 16 -22 11z m-53 -56
c0 -8 -4 -18 -10 -21 -5 -3 -10 3 -10 14 0 12 5 21 10 21 6 0 10 -6 10 -14z
m62 -18 c-15 -15 -26 -4 -18 18 5 13 9 15 18 6 9 -9 9 -15 0 -24z"/>
<path d="M2710 1804 c-13 -33 -13 -34 6 -34 8 0 13 4 9 9 -3 5 -1 12 5 16 5 3
10 -1 10 -9 0 -13 10 -16 45 -14 25 0 45 5 45 10 0 4 9 3 20 -4 18 -11 23 -9
46 17 l27 30 -5 -27 c-5 -25 -2 -28 20 -28 20 0 23 3 14 12 -7 7 -12 18 -12
26 0 12 3 12 15 2 12 -10 15 -10 15 4 0 13 -11 15 -61 15 -42 -1 -62 -5 -66
-15 -7 -19 -23 -18 -23 1 0 9 -9 15 -25 15 -17 0 -25 -6 -25 -17 0 -15 -1 -15
-18 0 -25 23 -31 21 -42 -9z m174 7 c3 -5 -1 -14 -8 -20 -16 -13 -32 2 -21 19
8 12 22 13 29 1z"/>
<path d="M1703 1793 c-12 -2 -24 -14 -27 -29 -6 -21 -9 -22 -26 -12 -16 10
-23 10 -36 -4 -33 -32 11 -75 45 -44 16 14 19 15 24 3 8 -22 84 -21 90 1 4 16
5 16 6 0 1 -15 11 -17 73 -15 51 1 73 6 76 16 3 10 0 12 -12 8 -10 -4 -16 -1
-16 7 0 8 11 13 30 12 27 -1 30 -4 25 -23 -4 -18 -1 -23 15 -23 17 0 19 4 14
25 -5 20 -3 24 10 19 11 -4 16 -1 16 10 0 13 -11 16 -57 15 -32 -1 -63 -6 -70
-11 -7 -6 -14 -5 -18 2 -10 16 -55 12 -55 -5 0 -20 -10 -19 -25 2 -14 18 -35
10 -35 -15 0 -13 -3 -12 -16 6 -8 12 -23 22 -32 23 -10 1 -8 4 7 8 22 6 44 33
24 30 -4 -1 -18 -4 -30 -6z m-53 -68 c0 -8 -4 -15 -10 -15 -5 0 -10 7 -10 15
0 8 5 15 10 15 6 0 10 -7 10 -15z m60 -1 c0 -8 -4 -12 -10 -9 -5 3 -10 10 -10
16 0 5 5 9 10 9 6 0 10 -7 10 -16z"/>
<path d="M786 1774 c-21 -21 -20 -47 2 -67 23 -21 46 -22 62 -2 11 13 14 13
26 -2 10 -14 17 -16 31 -7 10 6 18 16 18 22 0 6 4 14 9 19 5 5 6 -4 2 -20 -6
-27 -5 -28 26 -25 29 3 33 7 36 35 l3 33 -60 -1 c-38 -1 -64 -6 -69 -14 -4 -6
-18 -18 -31 -25 -21 -11 -26 -10 -38 6 -7 10 -13 22 -13 26 0 16 30 20 45 8
19 -16 28 -9 19 14 -8 20 -48 21 -68 0z"/>
<path d="M2627 1757 c-3 -8 3 -14 15 -14 16 -2 17 1 8 13 -15 17 -17 17 -23 1z"/>
<path d="M1013 1742 c-4 -8 -2 -22 4 -31 12 -19 45 -21 51 -2 3 9 -1 11 -17 6
-14 -4 -21 -2 -21 6 0 7 3 9 6 6 4 -3 16 -1 27 5 19 10 20 8 14 -26 -5 -33 -4
-36 20 -36 19 0 23 3 15 13 -8 9 38 12 224 10 l234 -1 -6 26 c-9 38 -13 42
-35 42 -12 0 -23 -10 -29 -26 -9 -23 -12 -24 -27 -13 -15 13 -15 14 0 17 38 8
13 22 -37 22 -52 0 -55 -1 -59 -27 l-4 -28 -2 28 -1 28 -67 -3 c-63 -3 -68 -5
-67 -25 0 -13 -4 -23 -9 -23 -5 0 -7 11 -5 25 5 24 3 25 -40 25 -41 0 -43 -1
-31 -17 13 -17 12 -17 -6 -1 -27 22 -124 22 -132 0z m333 -17 c1 -8 -2 -15 -7
-15 -5 0 -9 10 -9 22 0 23 12 17 16 -7z m-226 -1 c0 -8 -4 -12 -10 -9 -5 3
-10 10 -10 16 0 5 5 9 10 9 6 0 10 -7 10 -16z m190 1 c0 -8 -4 -15 -10 -15 -5
0 -10 7 -10 15 0 8 5 15 10 15 6 0 10 -7 10 -15z m117 0 c0 -8 -6 -15 -14 -15
-14 0 -17 12 -6 23 11 11 20 8 20 -8z"/>
<path d="M2730 1646 c0 -2 8 -10 18 -17 15 -13 16 -12 3 4 -13 16 -21 21 -21
13z"/>
<path d="M2728 1543 c6 -2 18 -2 25 0 6 3 1 5 -13 5 -14 0 -19 -2 -12 -5z"/>
<path d="M1565 1520 c-3 -5 -1 -10 4 -10 6 0 11 5 11 10 0 6 -2 10 -4 10 -3 0
-8 -4 -11 -10z"/>
<path d="M2120 1400 c-9 -6 -10 -10 -3 -10 6 0 15 5 18 10 8 12 4 12 -15 0z"/>
<path d="M1615 1360 c-3 -5 -1 -10 4 -10 6 0 11 5 11 10 0 6 -2 10 -4 10 -3 0
-8 -4 -11 -10z"/>
</g>
</svg>
