<svg id="draw.id" overflow="visible" v:layers="{&quot;default&quot;:{&quot;name&quot;:&quot;Default&quot;,&quot;print&quot;:1,&quot;display&quot;:1,&quot;publish&quot;:1}}" v:ver="3" x="500.5" xmlns="http://www.w3.org/2000/svg" xmlns:v="http://vecta.io" xmlns:xlink="http://www.w3.org/1999/xlink" y="500.5" v:stencils="{&quot;0&quot;:{&quot;id&quot;:&quot;stencil_25&quot;,&quot;expand&quot;:1,&quot;show_name&quot;:1},&quot;1&quot;:{&quot;id&quot;:&quot;stencil_65&quot;,&quot;expand&quot;:1,&quot;show_name&quot;:1}}"><style xmlns="http://www.w3.org/1999/xhtml"><![CDATA[#draw\.id{stroke:#000;stroke-linecap:round;stroke-linejoin:round;fill:#fff;fill-rule:evenodd;font-family:Roboto;font-size:14px;text-anchor:middle}#draw\.id text{paint-order:stroke;white-space:pre}#draw\.id .Text\.cls{stroke:none}]]></style><defs><style type="text/css">@import url('https://fonts.googleapis.com/css?family=Roboto+Condensed:400,400i,700,700i');@import url('https://fonts.googleapis.com/css?family=Roboto:400,400i,700,700i');@import url('https://fonts.googleapis.com/css?family=Cousine:400,400i,700,700i');@import url('https://fonts.googleapis.com/css?family=Anonymous+Pro:400,400i,700,700i');@import url('https://fonts.googleapis.com/css?family=Lato:400,400i,700,700i');@import url('https://fonts.googleapis.com/css?family=Open+Sans:400,400i,700,700i');</style><linearGradient id="L001001000ffffff100100c7c7c7100.grad" x1="0%" y1="0%" x2="100%" y2="100%"><stop offset="0%" stop-color="#ffffff" stop-opacity="1"/><stop offset="100%" stop-color="#c7c7c7" stop-opacity="1"/></linearGradient><linearGradient id="L001001000eeffe51001006bd153100.grad" x1="0%" y1="0%" x2="100%" y2="100%"><stop offset="0%" stop-color="#eeffe5" stop-opacity="1"/><stop offset="100%" stop-color="#6bd153" stop-opacity="1"/></linearGradient><linearGradient id="L001001000ffe8e6100100ff8080100.grad" x1="0%" y1="0%" x2="100%" y2="100%"><stop offset="0%" stop-color="#ffe8e6" stop-opacity="1"/><stop offset="100%" stop-color="#ff8080" stop-opacity="1"/></linearGradient><linearGradient id="L0010010006441a51001002a0845100.grad" x1="0%" y1="0%" x2="100%" y2="100%"><stop offset="0%" stop-color="#6441a5" stop-opacity="1"/><stop offset="100%" stop-color="#2a0845" stop-opacity="1"/></linearGradient></defs><title xmlns="http://www.w3.org/1999/xhtml">Untitled drawing</title><desc xmlns="http://www.w3.org/1999/xhtml"></desc><svg height="476.22048568725586" id="kpfdb6an3d" overflow="visible" v:setup="{&quot;paper&quot;:&quot;A4&quot;,&quot;unit&quot;:&quot;px&quot;,&quot;scale&quot;:{&quot;from&quot;:1,&quot;to&quot;:1},&quot;width&quot;:1122.5197162628174,&quot;height&quot;:793.7008094787598}" viewBox="0 0 1122.5197162628174 793.7008094787598" width="673.5118297576904"><g id="kpfdf7sgoy" transform="translate(40 10)" v:events="[{&quot;event&quot;:&quot;onclick&quot;,&quot;code&quot;:&quot;openGallery(\&quot;severnqshka\&quot;)&quot;}]" class="" v:link="[{&quot;url&quot;:&quot;#&quot;,&quot;desc&quot;:&quot;Северняшка област&quot;}]"><path d="M 0 60 L 90 200 L 120 200 L 150 220 L 200 220 L 250 270 L 480 260 L 490 230 L 470 210 L 450 140 L 470 120 L 450 80 L 390 110 L 250 100 L 210 100 L 120 70 L 80 80 L 70 80 L 30 50 L 50 20 L 30 0 Z" stroke="#000"/><g transform="translate(0 0)" class="Text.cls"><rect x="0" y="0" width="490" height="270" fill="none" stroke="none"/><text fill="#000000" fill-opacity="1"/></g></g><g id="kpfdi5i9pk" transform="translate(500 40)" v:events="[{&quot;event&quot;:&quot;onclick&quot;,&quot;code&quot;:&quot;openGallery(\&quot;dobrudjanska\&quot;)&quot;}]" class="" v:link="[{&quot;url&quot;:&quot;#&quot;,&quot;desc&quot;:&quot;Добруджанска област&quot;}]"><path d="M 330 80 L 320 90 L 280 90 L 250 120 L 240 160 L 220 180 L 220 230 L 200 220 L 150 210 L 90 220 L 30 190 L 10 130 L 30 90 L 0 50 L 20 10 L 70 10 L 140 0 L 200 10 L 250 30 Z" stroke="#000"/><g transform="translate(0 0)" class="Text.cls"><rect x="0" y="0" width="330" height="230" fill="none" stroke="none"/><text fill="#000000" fill-opacity="1"/></g></g><g id="kpfdj6wcq4" transform="translate(30 220)" v:events="[{&quot;event&quot;:&quot;onclick&quot;,&quot;code&quot;:&quot;openGallery(\&quot;shopska\&quot;)&quot;}]" class="" v:link="[{&quot;url&quot;:&quot;#&quot;,&quot;desc&quot;:&quot;Шопска област&quot;}]"><path d="M 130 10 L 100 10 L 80 0 L 40 50 L 0 70 L 0 90 L 20 130 L 0 160 L 60 210 L 90 210 L 100 180 L 140 200 L 160 170 L 180 170 L 200 150 L 190 120 L 220 110 L 250 110 L 250 70 L 230 60 L 200 20 L 180 30 L 130 30 Z" stroke="#000" fill="url(#L001001000eeffe51001006bd153100.grad)"/><g transform="translate(0 0)" class="Text.cls"><rect x="0" y="0" width="250" height="210" fill="none" stroke="none"/><text fill="#000000" fill-opacity="1"/></g></g><g id="kpfdk4v0qs" transform="translate(110 400)" v:events="[{&quot;event&quot;:&quot;onclick&quot;,&quot;code&quot;:&quot;openGallery(\&quot;makedonska\&quot;)&quot;}]" class="" v:link="[{&quot;url&quot;:&quot;#&quot;,&quot;desc&quot;:&quot;Македонска (Пиринска) област&quot;}]"><path d="M 0 130 L 10 150 L 30 140 L 100 140 L 90 110 L 140 40 L 120 10 L 100 0 L 70 30 L 30 20 L 30 50 L 0 50 Z" stroke="#000" fill="url(#L001001000ffe8e6100100ff8080100.grad)"/><g transform="translate(0 0)" class="Text.cls"><rect x="0" y="0" width="140" height="150" fill="none" stroke="none"/><text fill="#000000" fill-opacity="1"/></g></g><g id="kpfdky5or5" transform="translate(220 450)" v:events="[{&quot;event&quot;:&quot;onclick&quot;,&quot;code&quot;:&quot;openGallery(\&quot;rodopska\&quot;)&quot;}]" class="" v:link="[{&quot;url&quot;:&quot;#&quot;,&quot;desc&quot;:&quot;Родопска област&quot;}]"><path d="M 260 90 L 270 80 L 300 80 L 290 110 L 200 130 L 140 100 L 120 100 L 110 80 L 30 70 L 10 90 L 0 70 L 40 0 L 70 10 L 120 10 L 120 20 L 160 30 L 190 30 L 260 90 Z" fill="url(#L001001000ffe8e6100100ff8080100.grad)" stroke="#000"/></g><g id="kpfdlt10rn" transform="translate(540 260)" v:events="[{&quot;event&quot;:&quot;onclick&quot;,&quot;code&quot;:&quot;openGallery(\&quot;strandjanska\&quot;)&quot;}]" class="" v:link="[{&quot;url&quot;:&quot;#&quot;,&quot;desc&quot;:&quot;Странджанска област&quot;}]"><path d="M 60 10 L 40 60 L 0 100 L 0 150 L 60 160 L 110 140 L 210 160 L 180 130 L 180 100 L 140 90 L 130 70 L 180 20 L 120 0 Z" fill="url(#L001001000eeffe51001006bd153100.grad)" stroke="#000"/><g transform="translate(0 0)" class="Text.cls"><rect x="0" y="0" width="210" height="160" fill="none" stroke="none"/><text fill="#000000" fill-opacity="1"/></g></g><g id="kpfdmm3ws1" transform="translate(230 260)" v:events="[{&quot;event&quot;:&quot;onclick&quot;,&quot;code&quot;:&quot;openGallery(\&quot;trakiiska\&quot;)&quot;}]" class="" v:link="[{&quot;url&quot;:&quot;#&quot;,&quot;desc&quot;:&quot;Тракийска област&quot;}]"><path d="M 70 30 L 60 60 L 70 80 L 30 80 L 10 90 L 20 120 L 0 130 L 30 170 L 100 180 L 170 200 L 240 250 L 260 220 L 320 190 L 320 160 L 290 150 L 300 90 L 350 20 L 310 0 L 280 30 Z" fill="url(#L001001000eeffe51001006bd153100.grad)" stroke="#000"/></g><g id="kpfdqekctc" transform="translate(920 540)"><path d="M 1e-13 1e-13 L 10 0" fill="none" stroke="#000"/></g><g id="kpfe14cztg" transform="translate(980 410)"><path d="M 1e-13 1e-13 L 0 10" fill="none" stroke="#000"/></g><g id="kpfer99et0" transform="translate(180 129.99998474121094)" v:unit="{&quot;strokeWidth&quot;:&quot;px&quot;}" class=""><rect class="" x="0" y="0" width="270.0000305175781" height="100" fill="none" stroke="none" stroke-width="0"/><g transform="translate(0 0) rotate(10 135.00001525878906 50)" class="Text.cls"><rect x="0" y="0" width="270.0000305175781" height="100" fill="none" stroke="none"/><text fill="#000000" fill-opacity="1" font-size="24px" font-weight="bold" font-style="italic"><tspan x="135.00001525878906" y="57.92">Северняшка област</tspan></text></g></g><g id="kpfesesmth" transform="translate(560 109.9999771118164)" v:unit="{&quot;strokeWidth&quot;:&quot;px&quot;}" class=""><rect class="" x="0" y="0" width="170" height="90" fill="none" stroke="none" stroke-width="0"/><g transform="translate(-20 0)" class="Text.cls"><rect x="0" y="0" width="210" height="90" fill="none" stroke="none"/><text fill="#000000" fill-opacity="1" font-size="24px" font-weight="bold" font-style="italic"><tspan x="105" y="38.52">Добруджанска </tspan><tspan x="105" y="67.32">област</tspan></text></g></g><g id="kpfessoxu3" transform="translate(560 310)" v:unit="{&quot;strokeWidth&quot;:&quot;px&quot;}" class=""><rect class="" x="0" y="0" width="180" height="80" fill="none" stroke="none" stroke-width="0"/><g transform="translate(-20 0) rotate(320 90 40)" class="Text.cls"><rect x="0" y="0" width="180" height="80" fill="none" stroke="none"/><text fill="#000000" fill-opacity="1" font-size="24px" font-weight="bold" font-style="italic"><tspan x="90" y="33.52">Странджанска </tspan><tspan x="90" y="62.32">област</tspan></text></g></g><g id="kpfetxdxum" transform="translate(320 330)" v:unit="{&quot;strokeWidth&quot;:&quot;px&quot;}" class=""><rect class="" x="0" y="0" width="180.00003051757812" height="100" fill="none" stroke="none" stroke-width="0"/><g transform="translate(0 0)" class="Text.cls"><rect x="0" y="0" width="180.00003051757812" height="100" fill="none" stroke="none"/><text fill="#000000" fill-opacity="1" font-size="24px" font-weight="bold" font-style="italic"><tspan x="90.00001525878906" y="43.52">Тракийска </tspan><tspan x="90.00001525878906" y="72.32">област</tspan></text></g></g><g id="kpfeu5t1v1" transform="translate(270 470)" v:unit="{&quot;strokeWidth&quot;:&quot;px&quot;}" class=""><rect class="" x="0" y="0" width="210.00003051757812" height="110" fill="none" stroke="none" stroke-width="0"/><g transform="translate(-10 -10) rotate(20 105.00001525878906 55)" class="Text.cls"><rect x="0" y="0" width="210.00003051757812" height="110" fill="none" stroke="none"/><text fill="#000000" fill-opacity="1" font-size="24px" font-weight="bold" font-style="italic"><tspan x="105.00001525878906" y="62.92">Родопска област</tspan></text></g></g><g id="kpfeuietvk" transform="translate(130 460)" v:unit="{&quot;strokeWidth&quot;:&quot;px&quot;}" class=""><rect class="" x="0" y="0" width="80" height="50" fill="none" stroke="none" stroke-width="0"/><g transform="translate(-30 -10) rotate(315 85 25)" class="Text.cls"><rect x="0" y="0" width="170" height="50" fill="none" stroke="none"/><text fill="#000000" fill-opacity="1" font-size="24px" font-weight="bold" font-style="italic"><tspan x="85" y="18.520000000000003">Македонска </tspan><tspan x="85" y="47.32">област</tspan></text></g></g><g id="kpfevnq9x0" transform="translate(60.000003814697266 280)" v:unit="{&quot;strokeWidth&quot;:&quot;px&quot;}" class=""><rect class="" x="0" y="0" width="219.99999618530273" height="110" fill="none" stroke="none" stroke-width="0"/><g transform="translate(-20 -10) rotate(340 110 55)" class="Text.cls"><rect x="0" y="0" width="220" height="110" fill="none" stroke="none"/><text fill="#000000" fill-opacity="1" font-size="24px" font-weight="bold" font-style="italic"><tspan x="110" y="62.92">Шопска област</tspan></text></g></g></svg></svg>